# xmcd
#
# Track frame offsets: 
#        150
#        21159
#        34774
#        51945
#        64316
#        77834
#        93166
#        101079
#        114877
#        131085
#        144282
#        155671
#        167576
#        181213
#        186610
#        203197
#        216290
#        228633
#        249886
#        266271
#        297133
#
# Disc length: 4132 seconds
#
# Revision: 0
# Processed by: cddbd v1.5.2PL0 Copyright (c) Steve Scherf et al.
# Submitted via: ExactAudioCopy v0.99pb3
#
DISCID=2c102215
DTITLE=Michael Hakanson-Stacy - Willie McMichael's Two Bit Blues
DYEAR=2008
DGENRE=Blues
TTITLE0=Two Bit Blues
TTITLE1=The King's Highway
TTITLE2=Shake The Dust
TTITLE3=Delchytown Blues
TTITLE4=You Drink Too Much
TTITLE5=Working On A Building
TTITLE6=Empty Pocket Blues
TTITLE7=Down To My Soul
TTITLE8=Blues For The Belfry
TTITLE9=Dawn
TTITLE10=Down To You (Dysfunctional Blues)
TTITLE11=Weakness Of The Flesh
TTITLE12=Pizza Blues
TTITLE13=South Carolina Rag
TTITLE14=Where Would I Be?
TTITLE15=Letter Of The Law
TTITLE16=Bull RUsh Blues
TTITLE17=The Toad and The Baker
TTITLE18=Titanic
TTITLE19=Pearly White City
TTITLE20=Sweeping Dopeyera's Workshop
EXTD=
EXTT0=
EXTT1=
EXTT2=
EXTT3=
EXTT4=
EXTT5=
EXTT6=
EXTT7=
EXTT8=
EXTT9=
EXTT10=
EXTT11=
EXTT12=
EXTT13=
EXTT14=
EXTT15=
EXTT16=
EXTT17=
EXTT18=
EXTT19=
EXTT20=
PLAYORDER=
